<svg width="32" height="32" viewBox="0 0 32 32" fill="none" xmlns="http://www.w3.org/2000/svg">
  <!-- Background Circle -->
  <circle cx="16" cy="16" r="16" fill="url(#gradient)"/>
  
  <!-- Burger Icon -->
  <!-- Top Bun -->
  <path d="M8 11C8 9.5 9.5 8 12 8H20C22.5 8 24 9.5 24 11C24 11.5 23.5 12 23 12H9C8.5 12 8 11.5 8 11Z" fill="white" opacity="0.95"/>
  
  <!-- Arrow/Speed Lines -->
  <path d="M11 16L17 16L15 14" stroke="white" stroke-width="1.5" stroke-linecap="round" stroke-linejoin="round" opacity="0.9"/>
  
  <!-- Patty -->
  <rect x="9" y="17" width="14" height="2" rx="1" fill="white" opacity="0.95"/>
  
  <!-- Bottom Bun -->
  <path d="M8 22C8 21.5 8.5 21 9 21H23C23.5 21 24 21.5 24 22C24 23.5 22.5 25 20 25H12C9.5 25 8 23.5 8 22Z" fill="white" opacity="0.95"/>
  
  <!-- Gradient Definition -->
  <defs>
    <linearGradient id="gradient" x1="0" y1="0" x2="32" y2="32" gradientUnits="userSpaceOnUse">
      <stop offset="0%" stop-color="#f97316"/>
      <stop offset="100%" stop-color="#ea580c"/>
    </linearGradient>
  </defs>
</svg>
